<svg width="261" height="85" viewBox="0 0 261 85" fill="none" xmlns="http://www.w3.org/2000/svg">
<path d="M6.688 59.0005V33.1605H22.8V32.1725H6.688V7.32047H24.852V6.33247H0V59.0005H6.688Z" fill="#F5F5F5"/>
<path d="M34.5865 11.8045C36.7905 11.8045 38.6145 10.0565 38.6145 7.70047C38.6145 5.42047 36.7905 3.67247 34.5865 3.67247C32.2305 3.67247 30.4825 5.42047 30.4825 7.70047C30.4825 10.0565 32.2305 11.8045 34.5865 11.8045ZM37.7785 59.0005V20.0125H31.3185V59.0005H37.7785Z" fill="#F5F5F5"/>
<path d="M69.2609 59.0005H75.7209V31.7925C75.7209 24.6485 70.7049 19.2525 63.7129 19.2525C58.5449 19.2525 54.5929 22.2165 52.8449 26.6245V20.0125H46.3849V59.0005H52.8449V31.2605C52.8449 25.8645 56.4169 21.5325 61.2049 21.5325C65.9169 21.5325 69.2609 26.2445 69.2609 31.7165V59.0005Z" fill="#F5F5F5"/>
<path d="M101.04 59.7605C109.096 59.7605 115.176 55.1245 117.76 47.9045V85H124.144V0.480469H117.76V31.1085C115.176 23.8885 109.096 19.2525 101.04 19.2525C89.8676 19.2525 82.2676 28.0685 82.2676 39.4685C82.2676 50.9445 89.8676 59.7605 101.04 59.7605ZM103.32 58.2405C94.9596 58.2405 88.9556 50.5645 88.9556 39.4685C88.9556 28.3725 95.1116 20.6965 103.32 20.6965C111.376 20.6965 117.988 28.3725 117.988 39.4685C117.988 50.5645 111.376 58.2405 103.32 58.2405Z" fill="#F5F5F5"/>
<path d="M130.952 48.8925C130.876 54.9725 136.272 59.7605 143.34 59.7605C150.484 59.7605 155.348 55.6565 155.424 49.1205C155.424 42.6605 150.94 39.6205 146.152 37.1125C141.82 34.9085 137.488 32.8565 137.564 27.0805C137.64 22.9005 139.54 20.2405 142.732 20.2405C146.912 20.2405 148.128 23.7365 148.052 28.0685C148.052 28.7525 148.052 29.3605 147.976 29.8165H154.512C154.588 23.8885 149.572 19.2525 143.036 19.2525C136.272 19.2525 131.712 23.0525 131.636 29.5125C131.56 36.2005 136.88 39.3925 141.364 41.7485C145.468 44.0285 149.572 46.1565 149.496 51.7045C149.42 56.7205 146.532 58.7725 143.644 58.7725C139.464 58.7725 137.488 55.3525 137.488 50.7165C137.488 50.1085 137.488 49.4245 137.564 48.8925H130.952Z" fill="#F5F5F5"/>
<path d="M213.995 24.7245C210.803 13.2485 200.847 5.57247 188.231 5.57247C172.651 5.57247 160.871 16.8205 160.871 32.7045C160.871 48.5125 172.651 59.7605 188.231 59.7605C201.759 59.7605 211.183 51.1725 213.995 40.5325H207.383C205.103 51.1725 198.035 58.7725 188.231 58.7725C176.147 58.7725 167.787 48.0565 167.787 32.7045C167.787 16.5165 176.527 6.56047 188.231 6.56047C198.415 6.56047 205.179 14.8445 207.383 24.7245H213.995Z" fill="#F5F5F5"/>
<path d="M240.092 59.7605C251.796 59.7605 260.688 51.3245 260.688 39.4685C260.688 27.6125 251.796 19.2525 240.092 19.2525C228.464 19.2525 219.572 27.6125 219.572 39.4685C219.572 51.3245 228.464 59.7605 240.092 59.7605ZM240.092 58.7725C231.884 58.7725 226.26 50.8685 226.26 39.4685C226.26 27.5365 232.188 20.2405 240.092 20.2405C248.3 20.2405 254 28.1445 254 39.4685C254 51.4765 248.072 58.7725 240.092 58.7725Z" fill="#F5F5F5"/>
<path d="M1.7116 81C1.56493 81 1.4516 80.9633 1.3716 80.89C1.29827 80.81 1.2616 80.6967 1.2616 80.55V74.4C1.2616 74.2533 1.29827 74.1433 1.3716 74.07C1.4516 73.99 1.56493 73.95 1.7116 73.95H3.6416C4.7816 73.95 5.6616 74.25 6.2816 74.85C6.9016 75.45 7.2116 76.3233 7.2116 77.47C7.2116 78.0433 7.1316 78.55 6.9716 78.99C6.81827 79.4233 6.58827 79.79 6.2816 80.09C5.97494 80.39 5.6016 80.6167 5.1616 80.77C4.7216 80.9233 4.21494 81 3.6416 81H1.7116ZM2.0816 80.3H3.5816C4.04827 80.3 4.4516 80.24 4.7916 80.12C5.13827 80 5.42494 79.8233 5.6516 79.59C5.88494 79.3567 6.05827 79.0633 6.1716 78.71C6.28494 78.35 6.3416 77.9367 6.3416 77.47C6.3416 76.53 6.1116 75.8267 5.6516 75.36C5.1916 74.8867 4.5016 74.65 3.5816 74.65H2.0816V80.3ZM12.2235 81.05C12.0901 81.05 11.9901 81.0133 11.9235 80.94C11.8568 80.86 11.8235 80.75 11.8235 80.61V76.52C11.8235 76.38 11.8568 76.2733 11.9235 76.2C11.9901 76.1267 12.0901 76.09 12.2235 76.09C12.3501 76.09 12.4501 76.1267 12.5235 76.2C12.5968 76.2733 12.6335 76.38 12.6335 76.52V80.61C12.6335 80.75 12.5968 80.86 12.5235 80.94C12.4568 81.0133 12.3568 81.05 12.2235 81.05ZM12.2235 74.97C12.0568 74.97 11.9268 74.9267 11.8335 74.84C11.7401 74.7467 11.6935 74.6233 11.6935 74.47C11.6935 74.31 11.7401 74.19 11.8335 74.11C11.9268 74.0233 12.0568 73.98 12.2235 73.98C12.3968 73.98 12.5268 74.0233 12.6135 74.11C12.7068 74.19 12.7535 74.31 12.7535 74.47C12.7535 74.6233 12.7068 74.7467 12.6135 74.84C12.5268 74.9267 12.3968 74.97 12.2235 74.97ZM19.0377 81.09C18.7377 81.09 18.4344 81.0533 18.1277 80.98C17.8277 80.9067 17.5477 80.78 17.2877 80.6C17.221 80.5533 17.1744 80.5 17.1477 80.44C17.121 80.3733 17.111 80.31 17.1177 80.25C17.131 80.1833 17.1577 80.1267 17.1977 80.08C17.2444 80.0333 17.2977 80.0067 17.3577 80C17.4244 79.9867 17.4977 80 17.5777 80.04C17.8377 80.2 18.0877 80.3133 18.3277 80.38C18.5744 80.44 18.8177 80.47 19.0577 80.47C19.4377 80.47 19.7244 80.4 19.9177 80.26C20.111 80.12 20.2077 79.93 20.2077 79.69C20.2077 79.5033 20.1444 79.3567 20.0177 79.25C19.891 79.1367 19.691 79.05 19.4177 78.99L18.5077 78.79C18.0877 78.7033 17.7744 78.5533 17.5677 78.34C17.3677 78.1267 17.2677 77.85 17.2677 77.51C17.2677 77.21 17.3444 76.9533 17.4977 76.74C17.6577 76.52 17.881 76.35 18.1677 76.23C18.4544 76.11 18.7877 76.05 19.1677 76.05C19.461 76.05 19.7377 76.09 19.9977 76.17C20.2644 76.2433 20.5044 76.3633 20.7177 76.53C20.7844 76.5767 20.8277 76.6333 20.8477 76.7C20.8744 76.76 20.8777 76.8233 20.8577 76.89C20.8444 76.95 20.8144 77.0033 20.7677 77.05C20.721 77.09 20.6644 77.1133 20.5977 77.12C20.531 77.1267 20.461 77.1067 20.3877 77.06C20.1877 76.9267 19.9844 76.83 19.7777 76.77C19.571 76.7033 19.3677 76.67 19.1677 76.67C18.7944 76.67 18.511 76.7433 18.3177 76.89C18.1244 77.0367 18.0277 77.23 18.0277 77.47C18.0277 77.6567 18.0877 77.81 18.2077 77.93C18.3277 78.05 18.5144 78.1367 18.7677 78.19L19.6777 78.38C20.111 78.4733 20.4344 78.6233 20.6477 78.83C20.8677 79.03 20.9777 79.3033 20.9777 79.65C20.9777 80.09 20.801 80.44 20.4477 80.7C20.0944 80.96 19.6244 81.09 19.0377 81.09ZM27.5221 81.09C27.0355 81.09 26.6155 80.9833 26.2621 80.77C25.9088 80.5567 25.6355 80.26 25.4421 79.88C25.2555 79.4933 25.1621 79.0467 25.1621 78.54C25.1621 78.1533 25.2155 77.8067 25.3221 77.5C25.4288 77.1933 25.5855 76.9333 25.7921 76.72C25.9988 76.5 26.2455 76.3333 26.5321 76.22C26.8255 76.1067 27.1555 76.05 27.5221 76.05C27.7621 76.05 28.0121 76.0867 28.2721 76.16C28.5321 76.2333 28.7688 76.36 28.9821 76.54C29.0488 76.5867 29.0921 76.6433 29.1121 76.71C29.1321 76.7767 29.1321 76.8433 29.1121 76.91C29.0921 76.97 29.0588 77.0233 29.0121 77.07C28.9655 77.11 28.9055 77.1333 28.8321 77.14C28.7655 77.1467 28.6955 77.1233 28.6221 77.07C28.4488 76.9367 28.2721 76.8433 28.0921 76.79C27.9121 76.7367 27.7388 76.71 27.5721 76.71C27.3121 76.71 27.0855 76.7533 26.8921 76.84C26.6988 76.92 26.5355 77.0367 26.4021 77.19C26.2688 77.3433 26.1655 77.5333 26.0921 77.76C26.0255 77.9867 25.9921 78.25 25.9921 78.55C25.9921 79.13 26.1288 79.59 26.4021 79.93C26.6755 80.2633 27.0655 80.43 27.5721 80.43C27.7388 80.43 27.9088 80.4033 28.0821 80.35C28.2621 80.2967 28.4421 80.2033 28.6221 80.07C28.6955 80.0167 28.7655 79.9933 28.8321 80C28.8988 80.0067 28.9555 80.0333 29.0021 80.08C29.0488 80.12 29.0788 80.1733 29.0921 80.24C29.1121 80.3067 29.1121 80.3733 29.0921 80.44C29.0721 80.5 29.0288 80.5533 28.9621 80.6C28.7488 80.7733 28.5155 80.9 28.2621 80.98C28.0088 81.0533 27.7621 81.09 27.5221 81.09ZM35.2634 81.09C34.7901 81.09 34.3801 80.9867 34.0334 80.78C33.6867 80.5733 33.4167 80.2833 33.2234 79.91C33.0367 79.53 32.9434 79.0833 32.9434 78.57C32.9434 78.1833 32.9967 77.8367 33.1034 77.53C33.2101 77.2167 33.3667 76.95 33.5734 76.73C33.7801 76.51 34.0234 76.3433 34.3034 76.23C34.5901 76.11 34.9101 76.05 35.2634 76.05C35.7367 76.05 36.1467 76.1533 36.4934 76.36C36.8401 76.5667 37.1067 76.86 37.2934 77.24C37.4867 77.6133 37.5834 78.0567 37.5834 78.57C37.5834 78.9567 37.5301 79.3033 37.4234 79.61C37.3167 79.9167 37.1601 80.1833 36.9534 80.41C36.7467 80.63 36.5001 80.8 36.2134 80.92C35.9334 81.0333 35.6167 81.09 35.2634 81.09ZM35.2634 80.44C35.5634 80.44 35.8267 80.3667 36.0534 80.22C36.2801 80.0733 36.4534 79.86 36.5734 79.58C36.7001 79.3 36.7634 78.9633 36.7634 78.57C36.7634 77.9633 36.6267 77.5 36.3534 77.18C36.0867 76.86 35.7234 76.7 35.2634 76.7C34.9567 76.7 34.6901 76.7733 34.4634 76.92C34.2434 77.06 34.0701 77.27 33.9434 77.55C33.8234 77.8233 33.7634 78.1633 33.7634 78.57C33.7634 79.17 33.9001 79.6333 34.1734 79.96C34.4467 80.28 34.8101 80.44 35.2634 80.44ZM43.7917 81.07C43.6783 81.07 43.5783 81.04 43.4917 80.98C43.405 80.9133 43.3317 80.8133 43.2717 80.68L41.5417 76.64C41.495 76.54 41.4783 76.4467 41.4917 76.36C41.505 76.2733 41.545 76.2033 41.6117 76.15C41.6783 76.0967 41.7717 76.07 41.8917 76.07C41.9983 76.07 42.0817 76.0933 42.1417 76.14C42.2017 76.1867 42.255 76.27 42.3017 76.39L43.9417 80.4H43.6717L45.3417 76.39C45.3883 76.27 45.4417 76.1867 45.5017 76.14C45.5617 76.0933 45.6483 76.07 45.7617 76.07C45.8683 76.07 45.9483 76.0967 46.0017 76.15C46.0617 76.2033 46.095 76.2733 46.1017 76.36C46.115 76.44 46.1017 76.53 46.0617 76.63L44.3117 80.68C44.265 80.8133 44.195 80.9133 44.1017 80.98C44.015 81.04 43.9117 81.07 43.7917 81.07ZM52.4998 81.09C51.9865 81.09 51.5431 80.99 51.1698 80.79C50.8031 80.5833 50.5165 80.2933 50.3098 79.92C50.1098 79.5467 50.0098 79.1 50.0098 78.58C50.0098 78.0733 50.1098 77.6333 50.3098 77.26C50.5098 76.88 50.7831 76.5833 51.1298 76.37C51.4831 76.1567 51.8898 76.05 52.3498 76.05C52.6765 76.05 52.9698 76.1067 53.2298 76.22C53.4898 76.3267 53.7098 76.4833 53.8898 76.69C54.0765 76.8967 54.2165 77.1467 54.3098 77.44C54.4098 77.7333 54.4598 78.0633 54.4598 78.43C54.4598 78.5367 54.4298 78.6167 54.3698 78.67C54.3098 78.7167 54.2231 78.74 54.1098 78.74H50.6298V78.21H53.9198L53.7598 78.34C53.7598 77.98 53.7065 77.6767 53.5998 77.43C53.4931 77.1767 53.3365 76.9833 53.1298 76.85C52.9298 76.7167 52.6765 76.65 52.3698 76.65C52.0298 76.65 51.7398 76.73 51.4998 76.89C51.2665 77.0433 51.0898 77.26 50.9698 77.54C50.8498 77.8133 50.7898 78.1333 50.7898 78.5V78.56C50.7898 79.1733 50.9365 79.64 51.2298 79.96C51.5298 80.28 51.9531 80.44 52.4998 80.44C52.7265 80.44 52.9498 80.41 53.1698 80.35C53.3965 80.29 53.6165 80.19 53.8298 80.05C53.9231 79.99 54.0065 79.9633 54.0798 79.97C54.1598 79.97 54.2231 79.9933 54.2698 80.04C54.3165 80.08 54.3465 80.1333 54.3598 80.2C54.3798 80.26 54.3731 80.3267 54.3398 80.4C54.3131 80.4733 54.2565 80.5367 54.1698 80.59C53.9498 80.75 53.6898 80.8733 53.3898 80.96C53.0898 81.0467 52.7931 81.09 52.4998 81.09ZM59.2921 81.07C59.1587 81.07 59.0554 81.0333 58.9821 80.96C58.9154 80.8867 58.8821 80.7833 58.8821 80.65V76.48C58.8821 76.3467 58.9154 76.2467 58.9821 76.18C59.0487 76.1067 59.1454 76.07 59.2721 76.07C59.3987 76.07 59.4954 76.1067 59.5621 76.18C59.6354 76.2467 59.6721 76.3467 59.6721 76.48V77.29H59.5721C59.6787 76.8967 59.8821 76.5933 60.1821 76.38C60.4821 76.1667 60.8521 76.0533 61.2921 76.04C61.3921 76.0333 61.4721 76.0567 61.5321 76.11C61.5921 76.1567 61.6254 76.24 61.6321 76.36C61.6387 76.4733 61.6121 76.5633 61.5521 76.63C61.4921 76.6967 61.3987 76.7367 61.2721 76.75L61.1121 76.77C60.6587 76.81 60.3087 76.9567 60.0621 77.21C59.8221 77.4567 59.7021 77.7967 59.7021 78.23V80.65C59.7021 80.7833 59.6654 80.8867 59.5921 80.96C59.5254 81.0333 59.4254 81.07 59.2921 81.07ZM72.6242 82.87C72.5242 82.87 72.4442 82.8433 72.3842 82.79C72.3242 82.7367 72.2875 82.6633 72.2742 82.57C72.2675 82.4833 72.2842 82.3933 72.3242 82.3L73.0142 80.75V81.1L71.0942 76.64C71.0542 76.54 71.0408 76.4467 71.0542 76.36C71.0675 76.2733 71.1075 76.2033 71.1742 76.15C71.2408 76.0967 71.3342 76.07 71.4542 76.07C71.5608 76.07 71.6442 76.0933 71.7042 76.14C71.7642 76.1867 71.8175 76.27 71.8642 76.39L73.5042 80.41H73.2342L74.8942 76.39C74.9475 76.27 75.0042 76.1867 75.0642 76.14C75.1242 76.0933 75.2108 76.07 75.3242 76.07C75.4308 76.07 75.5108 76.0967 75.5642 76.15C75.6242 76.2033 75.6575 76.2733 75.6642 76.36C75.6775 76.44 75.6642 76.53 75.6242 76.63L73.0642 82.55C73.0108 82.67 72.9508 82.7533 72.8842 82.8C72.8242 82.8467 72.7375 82.87 72.6242 82.87ZM81.8825 81.09C81.4092 81.09 80.9992 80.9867 80.6525 80.78C80.3059 80.5733 80.0359 80.2833 79.8425 79.91C79.6559 79.53 79.5625 79.0833 79.5625 78.57C79.5625 78.1833 79.6159 77.8367 79.7225 77.53C79.8292 77.2167 79.9859 76.95 80.1925 76.73C80.3992 76.51 80.6425 76.3433 80.9225 76.23C81.2092 76.11 81.5292 76.05 81.8825 76.05C82.3559 76.05 82.7659 76.1533 83.1125 76.36C83.4592 76.5667 83.7259 76.86 83.9125 77.24C84.1059 77.6133 84.2025 78.0567 84.2025 78.57C84.2025 78.9567 84.1492 79.3033 84.0425 79.61C83.9359 79.9167 83.7792 80.1833 83.5725 80.41C83.3659 80.63 83.1192 80.8 82.8325 80.92C82.5525 81.0333 82.2359 81.09 81.8825 81.09ZM81.8825 80.44C82.1825 80.44 82.4459 80.3667 82.6725 80.22C82.8992 80.0733 83.0725 79.86 83.1925 79.58C83.3192 79.3 83.3825 78.9633 83.3825 78.57C83.3825 77.9633 83.2459 77.5 82.9725 77.18C82.7059 76.86 82.3425 76.7 81.8825 76.7C81.5759 76.7 81.3092 76.7733 81.0825 76.92C80.8625 77.06 80.6892 77.27 80.5625 77.55C80.4425 77.8233 80.3825 78.1633 80.3825 78.57C80.3825 79.17 80.5192 79.6333 80.7925 79.96C81.0659 80.28 81.4292 80.44 81.8825 80.44ZM90.3892 81.09C89.9958 81.09 89.6692 81.02 89.4092 80.88C89.1558 80.7333 88.9625 80.5167 88.8292 80.23C88.7025 79.9433 88.6392 79.5867 88.6392 79.16V76.48C88.6392 76.34 88.6725 76.2367 88.7392 76.17C88.8125 76.1033 88.9125 76.07 89.0392 76.07C89.1725 76.07 89.2725 76.1033 89.3392 76.17C89.4125 76.2367 89.4492 76.34 89.4492 76.48V79.15C89.4492 79.5767 89.5358 79.8967 89.7092 80.11C89.8892 80.3167 90.1692 80.42 90.5492 80.42C90.9625 80.42 91.2992 80.28 91.5592 80C91.8192 79.72 91.9492 79.3533 91.9492 78.9V76.48C91.9492 76.34 91.9825 76.2367 92.0492 76.17C92.1225 76.1033 92.2258 76.07 92.3592 76.07C92.4858 76.07 92.5825 76.1033 92.6492 76.17C92.7225 76.2367 92.7592 76.34 92.7592 76.48V80.65C92.7592 80.93 92.6292 81.07 92.3692 81.07C92.2425 81.07 92.1425 81.0333 92.0692 80.96C92.0025 80.8867 91.9692 80.7833 91.9692 80.65V79.74L92.0992 79.88C91.9658 80.2733 91.7458 80.5733 91.4392 80.78C91.1392 80.9867 90.7892 81.09 90.3892 81.09ZM97.9346 81.07C97.8013 81.07 97.698 81.0333 97.6246 80.96C97.558 80.8867 97.5246 80.7833 97.5246 80.65V76.48C97.5246 76.3467 97.558 76.2467 97.6246 76.18C97.6913 76.1067 97.788 76.07 97.9146 76.07C98.0413 76.07 98.138 76.1067 98.2046 76.18C98.278 76.2467 98.3146 76.3467 98.3146 76.48V77.29H98.2146C98.3213 76.8967 98.5246 76.5933 98.8246 76.38C99.1246 76.1667 99.4946 76.0533 99.9346 76.04C100.035 76.0333 100.115 76.0567 100.175 76.11C100.235 76.1567 100.268 76.24 100.275 76.36C100.281 76.4733 100.255 76.5633 100.195 76.63C100.135 76.6967 100.041 76.7367 99.9146 76.75L99.7546 76.77C99.3013 76.81 98.9513 76.9567 98.7046 77.21C98.4646 77.4567 98.3446 77.7967 98.3446 78.23V80.65C98.3446 80.7833 98.308 80.8867 98.2346 80.96C98.168 81.0333 98.068 81.07 97.9346 81.07ZM110.587 81.07C110.453 81.07 110.353 81.0333 110.287 80.96C110.22 80.8867 110.187 80.7833 110.187 80.65V76.48C110.187 76.3467 110.22 76.2467 110.287 76.18C110.353 76.1067 110.45 76.07 110.577 76.07C110.703 76.07 110.8 76.1067 110.867 76.18C110.94 76.2467 110.977 76.3467 110.977 76.48V77.34L110.867 77.22C111.007 76.8333 111.233 76.5433 111.547 76.35C111.867 76.15 112.233 76.05 112.647 76.05C113.033 76.05 113.353 76.12 113.607 76.26C113.867 76.4 114.06 76.6133 114.187 76.9C114.313 77.18 114.377 77.5367 114.377 77.97V80.65C114.377 80.7833 114.34 80.8867 114.267 80.96C114.2 81.0333 114.103 81.07 113.977 81.07C113.843 81.07 113.74 81.0333 113.667 80.96C113.6 80.8867 113.567 80.7833 113.567 80.65V78.02C113.567 77.5667 113.477 77.2367 113.297 77.03C113.123 76.8167 112.843 76.71 112.457 76.71C112.01 76.71 111.653 76.85 111.387 77.13C111.127 77.4033 110.997 77.77 110.997 78.23V80.65C110.997 80.93 110.86 81.07 110.587 81.07ZM121.31 81.09C120.797 81.09 120.354 80.99 119.98 80.79C119.614 80.5833 119.327 80.2933 119.12 79.92C118.92 79.5467 118.82 79.1 118.82 78.58C118.82 78.0733 118.92 77.6333 119.12 77.26C119.32 76.88 119.594 76.5833 119.94 76.37C120.294 76.1567 120.7 76.05 121.16 76.05C121.487 76.05 121.78 76.1067 122.04 76.22C122.3 76.3267 122.52 76.4833 122.7 76.69C122.887 76.8967 123.027 77.1467 123.12 77.44C123.22 77.7333 123.27 78.0633 123.27 78.43C123.27 78.5367 123.24 78.6167 123.18 78.67C123.12 78.7167 123.034 78.74 122.92 78.74H119.44V78.21H122.73L122.57 78.34C122.57 77.98 122.517 77.6767 122.41 77.43C122.304 77.1767 122.147 76.9833 121.94 76.85C121.74 76.7167 121.487 76.65 121.18 76.65C120.84 76.65 120.55 76.73 120.31 76.89C120.077 77.0433 119.9 77.26 119.78 77.54C119.66 77.8133 119.6 78.1333 119.6 78.5V78.56C119.6 79.1733 119.747 79.64 120.04 79.96C120.34 80.28 120.764 80.44 121.31 80.44C121.537 80.44 121.76 80.41 121.98 80.35C122.207 80.29 122.427 80.19 122.64 80.05C122.734 79.99 122.817 79.9633 122.89 79.97C122.97 79.97 123.034 79.9933 123.08 80.04C123.127 80.08 123.157 80.1333 123.17 80.2C123.19 80.26 123.184 80.3267 123.15 80.4C123.124 80.4733 123.067 80.5367 122.98 80.59C122.76 80.75 122.5 80.8733 122.2 80.96C121.9 81.0467 121.604 81.09 121.31 81.09ZM127.674 81.06C127.587 81.06 127.51 81.0333 127.444 80.98C127.377 80.9267 127.34 80.8567 127.334 80.77C127.334 80.6767 127.377 80.58 127.464 80.48L129.214 78.28V78.7L127.574 76.65C127.487 76.5433 127.444 76.4467 127.444 76.36C127.45 76.2733 127.487 76.2033 127.554 76.15C127.62 76.0967 127.697 76.07 127.784 76.07C127.884 76.07 127.967 76.09 128.034 76.13C128.107 76.1633 128.174 76.22 128.234 76.3L129.664 78.11H129.384L130.824 76.3C130.884 76.22 130.947 76.1633 131.014 76.13C131.08 76.09 131.164 76.07 131.264 76.07C131.357 76.07 131.434 76.0967 131.494 76.15C131.56 76.2033 131.594 76.2767 131.594 76.37C131.6 76.4567 131.56 76.5533 131.474 76.66L129.844 78.68V78.31L131.594 80.48C131.674 80.58 131.71 80.6767 131.704 80.77C131.704 80.8567 131.67 80.9267 131.604 80.98C131.537 81.0333 131.457 81.06 131.364 81.06C131.27 81.06 131.187 81.04 131.114 81C131.047 80.9667 130.98 80.91 130.914 80.83L129.374 78.89H129.664L128.124 80.83C128.064 80.9033 127.997 80.96 127.924 81C127.857 81.04 127.774 81.06 127.674 81.06ZM138.107 81.09C137.727 81.09 137.407 81.0233 137.147 80.89C136.894 80.75 136.704 80.55 136.577 80.29C136.451 80.0233 136.387 79.7 136.387 79.32V76.77H135.717C135.604 76.77 135.517 76.7433 135.457 76.69C135.397 76.63 135.367 76.55 135.367 76.45C135.367 76.35 135.397 76.2733 135.457 76.22C135.517 76.1667 135.604 76.14 135.717 76.14H136.387V74.99C136.387 74.8567 136.424 74.7567 136.497 74.69C136.571 74.6167 136.671 74.58 136.797 74.58C136.924 74.58 137.021 74.6167 137.087 74.69C137.161 74.7567 137.197 74.8567 137.197 74.99V76.14H138.457C138.571 76.14 138.657 76.1667 138.717 76.22C138.777 76.2733 138.807 76.35 138.807 76.45C138.807 76.55 138.777 76.63 138.717 76.69C138.657 76.7433 138.571 76.77 138.457 76.77H137.197V79.24C137.197 79.62 137.277 79.91 137.437 80.11C137.597 80.3033 137.857 80.4 138.217 80.4C138.344 80.4 138.451 80.3867 138.537 80.36C138.631 80.3333 138.707 80.32 138.767 80.32C138.827 80.3133 138.877 80.3333 138.917 80.38C138.957 80.4267 138.977 80.5067 138.977 80.62C138.977 80.7 138.961 80.7733 138.927 80.84C138.901 80.9067 138.851 80.9533 138.777 80.98C138.697 81.0067 138.591 81.03 138.457 81.05C138.331 81.0767 138.214 81.09 138.107 81.09ZM149.392 81.07C149.265 81.07 149.165 81.0333 149.092 80.96C149.025 80.8867 148.992 80.7833 148.992 80.65V76.77H148.352C148.245 76.77 148.158 76.7433 148.092 76.69C148.032 76.63 148.002 76.55 148.002 76.45C148.002 76.35 148.032 76.2733 148.092 76.22C148.158 76.1667 148.245 76.14 148.352 76.14H149.212L148.992 76.35V75.97C148.992 75.3367 149.145 74.8533 149.452 74.52C149.765 74.1867 150.222 73.9933 150.822 73.94L151.112 73.91C151.205 73.9033 151.278 73.92 151.332 73.96C151.392 74 151.428 74.05 151.442 74.11C151.462 74.17 151.465 74.2333 151.452 74.3C151.438 74.36 151.408 74.4133 151.362 74.46C151.315 74.5067 151.258 74.5333 151.192 74.54L150.962 74.56C150.555 74.5933 150.258 74.7167 150.072 74.93C149.892 75.1433 149.802 75.4567 149.802 75.87V76.29L149.682 76.14H150.882C150.995 76.14 151.082 76.1667 151.142 76.22C151.202 76.2733 151.232 76.35 151.232 76.45C151.232 76.55 151.202 76.63 151.142 76.69C151.082 76.7433 150.995 76.77 150.882 76.77H149.802V80.65C149.802 80.93 149.665 81.07 149.392 81.07ZM156.793 81.09C156.46 81.09 156.16 81.0267 155.893 80.9C155.633 80.7667 155.426 80.5867 155.273 80.36C155.12 80.1333 155.043 79.88 155.043 79.6C155.043 79.24 155.133 78.9567 155.313 78.75C155.5 78.5433 155.803 78.3967 156.223 78.31C156.65 78.2233 157.23 78.18 157.963 78.18H158.413V78.71H157.973C157.433 78.71 157.006 78.7367 156.693 78.79C156.386 78.8367 156.17 78.92 156.043 79.04C155.923 79.16 155.863 79.33 155.863 79.55C155.863 79.8233 155.956 80.0467 156.143 80.22C156.336 80.3933 156.596 80.48 156.923 80.48C157.19 80.48 157.423 80.4167 157.623 80.29C157.83 80.1633 157.99 79.99 158.103 79.77C158.223 79.55 158.283 79.2967 158.283 79.01V77.87C158.283 77.4567 158.2 77.16 158.033 76.98C157.866 76.7933 157.593 76.7 157.213 76.7C156.98 76.7 156.746 76.73 156.513 76.79C156.28 76.85 156.033 76.9467 155.773 77.08C155.68 77.1267 155.6 77.1433 155.533 77.13C155.466 77.11 155.413 77.0733 155.373 77.02C155.333 76.9667 155.31 76.9067 155.303 76.84C155.296 76.7667 155.31 76.6967 155.343 76.63C155.383 76.5633 155.443 76.51 155.523 76.47C155.816 76.3233 156.106 76.2167 156.393 76.15C156.68 76.0833 156.953 76.05 157.213 76.05C157.633 76.05 157.98 76.12 158.253 76.26C158.526 76.3933 158.73 76.6 158.863 76.88C158.996 77.1533 159.063 77.5067 159.063 77.94V80.65C159.063 80.7833 159.03 80.8867 158.963 80.96C158.903 81.0333 158.813 81.07 158.693 81.07C158.566 81.07 158.47 81.0333 158.403 80.96C158.336 80.8867 158.303 80.7833 158.303 80.65V79.87H158.393C158.34 80.1233 158.236 80.34 158.083 80.52C157.936 80.7 157.753 80.84 157.533 80.94C157.313 81.04 157.066 81.09 156.793 81.09ZM165.577 81.07C165.464 81.07 165.364 81.04 165.277 80.98C165.19 80.9133 165.117 80.8133 165.057 80.68L163.327 76.64C163.28 76.54 163.264 76.4467 163.277 76.36C163.29 76.2733 163.33 76.2033 163.397 76.15C163.464 76.0967 163.557 76.07 163.677 76.07C163.784 76.07 163.867 76.0933 163.927 76.14C163.987 76.1867 164.04 76.27 164.087 76.39L165.727 80.4H165.457L167.127 76.39C167.174 76.27 167.227 76.1867 167.287 76.14C167.347 76.0933 167.434 76.07 167.547 76.07C167.654 76.07 167.734 76.0967 167.787 76.15C167.847 76.2033 167.88 76.2733 167.887 76.36C167.9 76.44 167.887 76.53 167.847 76.63L166.097 80.68C166.05 80.8133 165.98 80.9133 165.887 80.98C165.8 81.04 165.697 81.07 165.577 81.07ZM174.115 81.09C173.642 81.09 173.232 80.9867 172.885 80.78C172.538 80.5733 172.268 80.2833 172.075 79.91C171.888 79.53 171.795 79.0833 171.795 78.57C171.795 78.1833 171.848 77.8367 171.955 77.53C172.062 77.2167 172.218 76.95 172.425 76.73C172.632 76.51 172.875 76.3433 173.155 76.23C173.442 76.11 173.762 76.05 174.115 76.05C174.588 76.05 174.998 76.1533 175.345 76.36C175.692 76.5667 175.958 76.86 176.145 77.24C176.338 77.6133 176.435 78.0567 176.435 78.57C176.435 78.9567 176.382 79.3033 176.275 79.61C176.168 79.9167 176.012 80.1833 175.805 80.41C175.598 80.63 175.352 80.8 175.065 80.92C174.785 81.0333 174.468 81.09 174.115 81.09ZM174.115 80.44C174.415 80.44 174.678 80.3667 174.905 80.22C175.132 80.0733 175.305 79.86 175.425 79.58C175.552 79.3 175.615 78.9633 175.615 78.57C175.615 77.9633 175.478 77.5 175.205 77.18C174.938 76.86 174.575 76.7 174.115 76.7C173.808 76.7 173.542 76.7733 173.315 76.92C173.095 77.06 172.922 77.27 172.795 77.55C172.675 77.8233 172.615 78.1633 172.615 78.57C172.615 79.17 172.752 79.6333 173.025 79.96C173.298 80.28 173.662 80.44 174.115 80.44ZM182.622 81.09C182.228 81.09 181.902 81.02 181.642 80.88C181.388 80.7333 181.195 80.5167 181.062 80.23C180.935 79.9433 180.872 79.5867 180.872 79.16V76.48C180.872 76.34 180.905 76.2367 180.972 76.17C181.045 76.1033 181.145 76.07 181.272 76.07C181.405 76.07 181.505 76.1033 181.572 76.17C181.645 76.2367 181.682 76.34 181.682 76.48V79.15C181.682 79.5767 181.768 79.8967 181.942 80.11C182.122 80.3167 182.402 80.42 182.782 80.42C183.195 80.42 183.532 80.28 183.792 80C184.052 79.72 184.182 79.3533 184.182 78.9V76.48C184.182 76.34 184.215 76.2367 184.282 76.17C184.355 76.1033 184.458 76.07 184.592 76.07C184.718 76.07 184.815 76.1033 184.882 76.17C184.955 76.2367 184.992 76.34 184.992 76.48V80.65C184.992 80.93 184.862 81.07 184.602 81.07C184.475 81.07 184.375 81.0333 184.302 80.96C184.235 80.8867 184.202 80.7833 184.202 80.65V79.74L184.332 79.88C184.198 80.2733 183.978 80.5733 183.672 80.78C183.372 80.9867 183.022 81.09 182.622 81.09ZM190.167 81.07C190.034 81.07 189.93 81.0333 189.857 80.96C189.79 80.8867 189.757 80.7833 189.757 80.65V76.48C189.757 76.3467 189.79 76.2467 189.857 76.18C189.924 76.1067 190.02 76.07 190.147 76.07C190.274 76.07 190.37 76.1067 190.437 76.18C190.51 76.2467 190.547 76.3467 190.547 76.48V77.29H190.447C190.554 76.8967 190.757 76.5933 191.057 76.38C191.357 76.1667 191.727 76.0533 192.167 76.04C192.267 76.0333 192.347 76.0567 192.407 76.11C192.467 76.1567 192.5 76.24 192.507 76.36C192.514 76.4733 192.487 76.5633 192.427 76.63C192.367 76.6967 192.274 76.7367 192.147 76.75L191.987 76.77C191.534 76.81 191.184 76.9567 190.937 77.21C190.697 77.4567 190.577 77.7967 190.577 78.23V80.65C190.577 80.7833 190.54 80.8867 190.467 80.96C190.4 81.0333 190.3 81.07 190.167 81.07ZM196.991 81.05C196.858 81.05 196.758 81.0133 196.691 80.94C196.624 80.86 196.591 80.75 196.591 80.61V76.52C196.591 76.38 196.624 76.2733 196.691 76.2C196.758 76.1267 196.858 76.09 196.991 76.09C197.118 76.09 197.218 76.1267 197.291 76.2C197.364 76.2733 197.401 76.38 197.401 76.52V80.61C197.401 80.75 197.364 80.86 197.291 80.94C197.224 81.0133 197.124 81.05 196.991 81.05ZM196.991 74.97C196.824 74.97 196.694 74.9267 196.601 74.84C196.508 74.7467 196.461 74.6233 196.461 74.47C196.461 74.31 196.508 74.19 196.601 74.11C196.694 74.0233 196.824 73.98 196.991 73.98C197.164 73.98 197.294 74.0233 197.381 74.11C197.474 74.19 197.521 74.31 197.521 74.47C197.521 74.6233 197.474 74.7467 197.381 74.84C197.294 74.9267 197.164 74.97 196.991 74.97ZM204.115 81.09C203.735 81.09 203.415 81.0233 203.155 80.89C202.902 80.75 202.712 80.55 202.585 80.29C202.459 80.0233 202.395 79.7 202.395 79.32V76.77H201.725C201.612 76.77 201.525 76.7433 201.465 76.69C201.405 76.63 201.375 76.55 201.375 76.45C201.375 76.35 201.405 76.2733 201.465 76.22C201.525 76.1667 201.612 76.14 201.725 76.14H202.395V74.99C202.395 74.8567 202.432 74.7567 202.505 74.69C202.579 74.6167 202.679 74.58 202.805 74.58C202.932 74.58 203.029 74.6167 203.095 74.69C203.169 74.7567 203.205 74.8567 203.205 74.99V76.14H204.465C204.579 76.14 204.665 76.1667 204.725 76.22C204.785 76.2733 204.815 76.35 204.815 76.45C204.815 76.55 204.785 76.63 204.725 76.69C204.665 76.7433 204.579 76.77 204.465 76.77H203.205V79.24C203.205 79.62 203.285 79.91 203.445 80.11C203.605 80.3033 203.865 80.4 204.225 80.4C204.352 80.4 204.459 80.3867 204.545 80.36C204.639 80.3333 204.715 80.32 204.775 80.32C204.835 80.3133 204.885 80.3333 204.925 80.38C204.965 80.4267 204.985 80.5067 204.985 80.62C204.985 80.7 204.969 80.7733 204.935 80.84C204.909 80.9067 204.859 80.9533 204.785 80.98C204.705 81.0067 204.599 81.03 204.465 81.05C204.339 81.0767 204.222 81.09 204.115 81.09ZM211.053 81.09C210.539 81.09 210.096 80.99 209.723 80.79C209.356 80.5833 209.069 80.2933 208.863 79.92C208.663 79.5467 208.563 79.1 208.563 78.58C208.563 78.0733 208.663 77.6333 208.863 77.26C209.063 76.88 209.336 76.5833 209.683 76.37C210.036 76.1567 210.443 76.05 210.903 76.05C211.229 76.05 211.523 76.1067 211.783 76.22C212.043 76.3267 212.263 76.4833 212.443 76.69C212.629 76.8967 212.769 77.1467 212.863 77.44C212.963 77.7333 213.013 78.0633 213.013 78.43C213.013 78.5367 212.983 78.6167 212.923 78.67C212.863 78.7167 212.776 78.74 212.663 78.74H209.183V78.21H212.473L212.313 78.34C212.313 77.98 212.259 77.6767 212.153 77.43C212.046 77.1767 211.889 76.9833 211.683 76.85C211.483 76.7167 211.229 76.65 210.923 76.65C210.583 76.65 210.293 76.73 210.053 76.89C209.819 77.0433 209.643 77.26 209.523 77.54C209.403 77.8133 209.343 78.1333 209.343 78.5V78.56C209.343 79.1733 209.489 79.64 209.783 79.96C210.083 80.28 210.506 80.44 211.053 80.44C211.279 80.44 211.503 80.41 211.723 80.35C211.949 80.29 212.169 80.19 212.383 80.05C212.476 79.99 212.559 79.9633 212.633 79.97C212.713 79.97 212.776 79.9933 212.823 80.04C212.869 80.08 212.899 80.1333 212.913 80.2C212.933 80.26 212.926 80.3267 212.893 80.4C212.866 80.4733 212.809 80.5367 212.723 80.59C212.503 80.75 212.243 80.8733 211.943 80.96C211.643 81.0467 211.346 81.09 211.053 81.09ZM225.213 81.09C224.833 81.09 224.513 81.0233 224.253 80.89C224 80.75 223.81 80.55 223.683 80.29C223.556 80.0233 223.493 79.7 223.493 79.32V76.77H222.823C222.71 76.77 222.623 76.7433 222.563 76.69C222.503 76.63 222.473 76.55 222.473 76.45C222.473 76.35 222.503 76.2733 222.563 76.22C222.623 76.1667 222.71 76.14 222.823 76.14H223.493V74.99C223.493 74.8567 223.53 74.7567 223.603 74.69C223.676 74.6167 223.776 74.58 223.903 74.58C224.03 74.58 224.126 74.6167 224.193 74.69C224.266 74.7567 224.303 74.8567 224.303 74.99V76.14H225.563C225.676 76.14 225.763 76.1667 225.823 76.22C225.883 76.2733 225.913 76.35 225.913 76.45C225.913 76.55 225.883 76.63 225.823 76.69C225.763 76.7433 225.676 76.77 225.563 76.77H224.303V79.24C224.303 79.62 224.383 79.91 224.543 80.11C224.703 80.3033 224.963 80.4 225.323 80.4C225.45 80.4 225.556 80.3867 225.643 80.36C225.736 80.3333 225.813 80.32 225.873 80.32C225.933 80.3133 225.983 80.3333 226.023 80.38C226.063 80.4267 226.083 80.5067 226.083 80.62C226.083 80.7 226.066 80.7733 226.033 80.84C226.006 80.9067 225.956 80.9533 225.883 80.98C225.803 81.0067 225.696 81.03 225.563 81.05C225.436 81.0767 225.32 81.09 225.213 81.09ZM230.468 81.07C230.334 81.07 230.234 81.0333 230.168 80.96C230.101 80.8867 230.068 80.7833 230.068 80.65V74.29C230.068 74.1567 230.101 74.0567 230.168 73.99C230.234 73.9167 230.334 73.88 230.468 73.88C230.594 73.88 230.694 73.9167 230.768 73.99C230.841 74.0567 230.878 74.1567 230.878 74.29V77.22H230.748C230.888 76.8333 231.114 76.5433 231.428 76.35C231.748 76.15 232.114 76.05 232.528 76.05C232.914 76.05 233.234 76.12 233.488 76.26C233.748 76.4 233.941 76.6133 234.068 76.9C234.194 77.18 234.258 77.5367 234.258 77.97V80.65C234.258 80.7833 234.221 80.8867 234.148 80.96C234.081 81.0333 233.984 81.07 233.858 81.07C233.724 81.07 233.621 81.0333 233.548 80.96C233.481 80.8867 233.448 80.7833 233.448 80.65V78.02C233.448 77.5667 233.358 77.2367 233.178 77.03C233.004 76.8167 232.724 76.71 232.338 76.71C231.891 76.71 231.534 76.85 231.268 77.13C231.008 77.4033 230.878 77.77 230.878 78.23V80.65C230.878 80.93 230.741 81.07 230.468 81.07ZM239.401 81.05C239.268 81.05 239.168 81.0133 239.101 80.94C239.035 80.86 239.001 80.75 239.001 80.61V76.52C239.001 76.38 239.035 76.2733 239.101 76.2C239.168 76.1267 239.268 76.09 239.401 76.09C239.528 76.09 239.628 76.1267 239.701 76.2C239.775 76.2733 239.811 76.38 239.811 76.52V80.61C239.811 80.75 239.775 80.86 239.701 80.94C239.635 81.0133 239.535 81.05 239.401 81.05ZM239.401 74.97C239.235 74.97 239.105 74.9267 239.011 74.84C238.918 74.7467 238.871 74.6233 238.871 74.47C238.871 74.31 238.918 74.19 239.011 74.11C239.105 74.0233 239.235 73.98 239.401 73.98C239.575 73.98 239.705 74.0233 239.791 74.11C239.885 74.19 239.931 74.31 239.931 74.47C239.931 74.6233 239.885 74.7467 239.791 74.84C239.705 74.9267 239.575 74.97 239.401 74.97ZM244.975 81.07C244.842 81.07 244.742 81.0333 244.675 80.96C244.609 80.8867 244.575 80.7833 244.575 80.65V76.48C244.575 76.3467 244.609 76.2467 244.675 76.18C244.742 76.1067 244.839 76.07 244.965 76.07C245.092 76.07 245.189 76.1067 245.255 76.18C245.329 76.2467 245.365 76.3467 245.365 76.48V77.34L245.255 77.22C245.395 76.8333 245.622 76.5433 245.935 76.35C246.255 76.15 246.622 76.05 247.035 76.05C247.422 76.05 247.742 76.12 247.995 76.26C248.255 76.4 248.449 76.6133 248.575 76.9C248.702 77.18 248.765 77.5367 248.765 77.97V80.65C248.765 80.7833 248.729 80.8867 248.655 80.96C248.589 81.0333 248.492 81.07 248.365 81.07C248.232 81.07 248.129 81.0333 248.055 80.96C247.989 80.8867 247.955 80.7833 247.955 80.65V78.02C247.955 77.5667 247.865 77.2367 247.685 77.03C247.512 76.8167 247.232 76.71 246.845 76.71C246.399 76.71 246.042 76.85 245.775 77.13C245.515 77.4033 245.385 77.77 245.385 78.23V80.65C245.385 80.93 245.249 81.07 244.975 81.07ZM255.659 82.89C255.306 82.89 254.959 82.8467 254.619 82.76C254.286 82.68 253.982 82.55 253.709 82.37C253.629 82.3233 253.576 82.2667 253.549 82.2C253.529 82.1333 253.526 82.0667 253.539 82C253.552 81.94 253.582 81.8833 253.629 81.83C253.676 81.7833 253.729 81.7533 253.789 81.74C253.856 81.7267 253.922 81.7367 253.989 81.77C254.282 81.95 254.562 82.0733 254.829 82.14C255.096 82.2067 255.359 82.24 255.619 82.24C256.092 82.24 256.449 82.1133 256.689 81.86C256.936 81.6067 257.059 81.24 257.059 80.76V79.63H257.159C257.059 80.0167 256.846 80.3233 256.519 80.55C256.199 80.7767 255.822 80.89 255.389 80.89C254.942 80.89 254.556 80.79 254.229 80.59C253.902 80.3833 253.649 80.0967 253.469 79.73C253.296 79.3633 253.209 78.94 253.209 78.46C253.209 78.1 253.259 77.7733 253.359 77.48C253.459 77.18 253.602 76.9267 253.789 76.72C253.982 76.5067 254.212 76.3433 254.479 76.23C254.752 76.11 255.056 76.05 255.389 76.05C255.829 76.05 256.209 76.1633 256.529 76.39C256.849 76.61 257.056 76.91 257.149 77.29L257.049 77.41V76.48C257.049 76.3467 257.082 76.2467 257.149 76.18C257.222 76.1067 257.322 76.07 257.449 76.07C257.582 76.07 257.682 76.1067 257.749 76.18C257.816 76.2467 257.849 76.3467 257.849 76.48V80.65C257.849 81.39 257.662 81.9467 257.289 82.32C256.922 82.7 256.379 82.89 255.659 82.89ZM255.539 80.23C255.852 80.23 256.122 80.16 256.349 80.02C256.576 79.8733 256.749 79.6667 256.869 79.4C256.996 79.1333 257.059 78.82 257.059 78.46C257.059 77.92 256.922 77.4933 256.649 77.18C256.376 76.86 256.006 76.7 255.539 76.7C255.232 76.7 254.966 76.7733 254.739 76.92C254.512 77.06 254.336 77.2633 254.209 77.53C254.089 77.79 254.029 78.1 254.029 78.46C254.029 79 254.166 79.43 254.439 79.75C254.712 80.07 255.079 80.23 255.539 80.23Z" fill="#F5F5F5"/>
</svg>
